<svg xmlns="http://www.w3.org/2000/svg" width="940" height="772" viewBox="0 0 940 772" font-family="Segoe UI, Helvetica, Arial, sans-serif">
<rect width="940" height="772" fill="#ffffff"/>
<text x="24" y="34" font-size="21" font-weight="700" fill="#222222">Agent round-trips per question (≈ premium requests)</text>
<text x="24" y="56" font-size="13" fill="#666666">without ctxmem: 1 orient + one read per relevant file · with ctxmem: 1 recall</text>
<rect x="600" y="20" width="13" height="13" fill="#e8663c"/>
<text x="619" y="31" font-size="12" fill="#222222">without ctxmem</text>
<rect x="600" y="40" width="13" height="13" fill="#1f9e8f"/>
<text x="619" y="51" font-size="12" fill="#222222">with ctxmem</text>
<text x="288" y="89" font-size="13" font-weight="400" fill="#222222" text-anchor="end">how does the QuerySet class build and exe…</text>
<rect x="300" y="74" width="78.6" height="15" rx="2" fill="#e8663c"/>
<text x="384.6" y="87" font-size="12" fill="#555">7</text>
<rect x="300" y="93" width="11.2" height="15" rx="2" fill="#1f9e8f"/>
<text x="317.2" y="106" font-size="12" fill="#555">1</text>
<text x="288" y="135" font-size="13" font-weight="400" fill="#222222" text-anchor="end">how does URL routing and the resolver mat…</text>
<rect x="300" y="120" width="44.9" height="15" rx="2" fill="#e8663c"/>
<text x="350.9" y="133" font-size="12" fill="#555">4</text>
<rect x="300" y="139" width="11.2" height="15" rx="2" fill="#1f9e8f"/>
<text x="317.2" y="152" font-size="12" fill="#555">1</text>
<text x="288" y="181" font-size="13" font-weight="400" fill="#222222" text-anchor="end">how are model fields defined and validated</text>
<rect x="300" y="166" width="44.9" height="15" rx="2" fill="#e8663c"/>
<text x="350.9" y="179" font-size="12" fill="#555">4</text>
<rect x="300" y="185" width="11.2" height="15" rx="2" fill="#1f9e8f"/>
<text x="317.2" y="198" font-size="12" fill="#555">1</text>
<text x="288" y="227" font-size="13" font-weight="400" fill="#222222" text-anchor="end">how does form validation and the clean me…</text>
<rect x="300" y="212" width="33.7" height="15" rx="2" fill="#e8663c"/>
<text x="339.7" y="225" font-size="12" fill="#555">3</text>
<rect x="300" y="231" width="11.2" height="15" rx="2" fill="#1f9e8f"/>
<text x="317.2" y="244" font-size="12" fill="#555">1</text>
<text x="288" y="273" font-size="13" font-weight="400" fill="#222222" text-anchor="end">how does middleware process request and r…</text>
<rect x="300" y="258" width="33.7" height="15" rx="2" fill="#e8663c"/>
<text x="339.7" y="271" font-size="12" fill="#555">3</text>
<rect x="300" y="277" width="11.2" height="15" rx="2" fill="#1f9e8f"/>
<text x="317.2" y="290" font-size="12" fill="#555">1</text>
<text x="288" y="319" font-size="13" font-weight="400" fill="#222222" text-anchor="end">how is the User model and authentication …</text>
<rect x="300" y="304" width="56.1" height="15" rx="2" fill="#e8663c"/>
<text x="362.1" y="317" font-size="12" fill="#555">5</text>
<rect x="300" y="323" width="11.2" height="15" rx="2" fill="#1f9e8f"/>
<text x="317.2" y="336" font-size="12" fill="#555">1</text>
<text x="288" y="365" font-size="13" font-weight="400" fill="#222222" text-anchor="end">how do database migrations apply operatio…</text>
<rect x="300" y="350" width="22.4" height="15" rx="2" fill="#e8663c"/>
<text x="328.4" y="363" font-size="12" fill="#555">2</text>
<rect x="300" y="369" width="11.2" height="15" rx="2" fill="#1f9e8f"/>
<text x="317.2" y="382" font-size="12" fill="#555">1</text>
<text x="288" y="411" font-size="13" font-weight="400" fill="#222222" text-anchor="end">how does the signal dispatcher connect an…</text>
<rect x="300" y="396" width="22.4" height="15" rx="2" fill="#e8663c"/>
<text x="328.4" y="409" font-size="12" fill="#555">2</text>
<rect x="300" y="415" width="11.2" height="15" rx="2" fill="#1f9e8f"/>
<text x="317.2" y="428" font-size="12" fill="#555">1</text>
<text x="288" y="457" font-size="13" font-weight="400" fill="#222222" text-anchor="end">how is the ORM manager attached to a model</text>
<rect x="300" y="442" width="44.9" height="15" rx="2" fill="#e8663c"/>
<text x="350.9" y="455" font-size="12" fill="#555">4</text>
<rect x="300" y="461" width="11.2" height="15" rx="2" fill="#1f9e8f"/>
<text x="317.2" y="474" font-size="12" fill="#555">1</text>
<text x="288" y="503" font-size="13" font-weight="400" fill="#222222" text-anchor="end">how does the admin site register models</text>
<rect x="300" y="488" width="22.4" height="15" rx="2" fill="#e8663c"/>
<text x="328.4" y="501" font-size="12" fill="#555">2</text>
<rect x="300" y="507" width="11.2" height="15" rx="2" fill="#1f9e8f"/>
<text x="317.2" y="520" font-size="12" fill="#555">1</text>
<text x="288" y="549" font-size="13" font-weight="400" fill="#222222" text-anchor="end">how does session middleware store data</text>
<rect x="300" y="534" width="56.1" height="15" rx="2" fill="#e8663c"/>
<text x="362.1" y="547" font-size="12" fill="#555">5</text>
<rect x="300" y="553" width="11.2" height="15" rx="2" fill="#1f9e8f"/>
<text x="317.2" y="566" font-size="12" fill="#555">1</text>
<text x="288" y="595" font-size="13" font-weight="400" fill="#222222" text-anchor="end">how does the WSGI handler build a response</text>
<rect x="300" y="580" width="56.1" height="15" rx="2" fill="#e8663c"/>
<text x="362.1" y="593" font-size="12" fill="#555">5</text>
<rect x="300" y="599" width="11.2" height="15" rx="2" fill="#1f9e8f"/>
<text x="317.2" y="612" font-size="12" fill="#555">1</text>
<text x="288" y="641" font-size="13" font-weight="400" fill="#222222" text-anchor="end">how does model form save create instances</text>
<rect x="300" y="626" width="33.7" height="15" rx="2" fill="#e8663c"/>
<text x="339.7" y="639" font-size="12" fill="#555">3</text>
<rect x="300" y="645" width="11.2" height="15" rx="2" fill="#1f9e8f"/>
<text x="317.2" y="658" font-size="12" fill="#555">1</text>
<line x1="24" y1="664" x2="916" y2="664" stroke="#dddddd"/>
<text x="288" y="687" font-size="13" font-weight="700" fill="#222222" text-anchor="end">TOTAL</text>
<rect x="300" y="672" width="550.0" height="15" rx="2" fill="#e8663c"/>
<text x="856.0" y="685" font-size="12" fill="#555">49</text>
<rect x="300" y="691" width="145.9" height="15" rx="2" fill="#1f9e8f"/>
<text x="451.9" y="704" font-size="12" fill="#555">13</text>
<text x="24" y="754" font-size="11" fill="#999">Generated by `ctxmem bench` — lower is better.</text>
</svg>
